<?xml version="1.0" encoding="UTF-8"?>
<svg xmlns="http://www.w3.org/2000/svg" xmlns:xlink="http://www.w3.org/1999/xlink" version="1.1" id="Gruppe_1" x="0px" y="0px" viewBox="0 0 535 135" style="enable-background:new 0 0 535 135;" xml:space="preserve">
<style type="text/css">
	.st0{fill:#7DB737;}
	.st1{fill:#9C9D9D;}
</style>
<path class="st0" d="M18.5,59.6v51c0,4.5,2.3,7.1,7.1,7.1h13.1v9.5H25.6c-10.2,0-16.5-7.2-16.5-16.6v-51H18.5z"></path>
<g>
	<rect x="40.7" y="59.6" class="st1" width="9.4" height="9.4"></rect>
	<path class="st0" d="M57.3,117.7c-4.8,0-7.1-2.6-7.1-7.1V78.9H31.3v9.4h9.5v22.2c0,9.5,6.2,16.6,16.5,16.6h8.9v-9.5h-8.9V117.7z"></path>
</g>
<path class="st0" d="M92.7,59.6H70.4v67.6h22.4c10.2,0,16.5-7.2,16.5-16.6V76.2C109.1,66.8,102.9,59.6,92.7,59.6z M99.8,110.6  c0,4.5-2.3,7.1-7.1,7.1H79.7V69.1h12.9c4.8,0,7.1,2.6,7.1,7.1C99.8,76.2,99.8,110.6,99.8,110.6z"></path>
<path class="st0" d="M138.5,59.6h-8.1c-10.2,0-16.5,7.2-16.5,16.6v34.2c0,9.5,6.2,16.6,16.5,16.6h8.1c10.2,0,16.5-7.2,16.5-16.6  V76.2C155,66.8,148.8,59.6,138.5,59.6z M145.6,110.6c0,4.5-2.3,7.1-7.1,7.1h-8.1c-4.8,0-7.1-2.6-7.1-7.1V76.2c0-4.5,2.3-7.1,7.1-7.1  h8.1c4.8,0,7.1,2.6,7.1,7.1V110.6z"></path>
</svg>
